<svg xmlns="http://www.w3.org/2000/svg" xmlns:xlink="http://www.w3.org/1999/xlink" width="100%" height="604" viewBox="0 0 485 604">
  <defs>
    <clipPath id="clip-Marriott_Status_1">
      <rect width="485" height="604"></rect>
    </clipPath>
  </defs>
  <g id="Marriott_Status_1" data-name="Marriott Status – 1" clip-path="url(#clip-Marriott_Status_1)">
    <rect width="485" height="604" fill="#fff"></rect>
    <g id="Group_87" data-name="Group 87" transform="translate(13 53.026)">
      <path id="Path_10" data-name="Path 10" d="M16.974,33.948A17.12,17.12,0,0,0,33.969,16.974,17.138,17.138,0,0,0,16.953,0,17.1,17.1,0,0,0,0,16.974,17.116,17.116,0,0,0,16.974,33.948Zm0-3.2A13.694,13.694,0,0,1,3.239,16.974,13.756,13.756,0,1,1,16.974,30.751Z" fill="#fff"></path>
      <text id="_1" data-name="1" transform="translate(4 5.974)" fill="#fff" font-size="20" font-family="HelveticaNeue, Helvetica Neue"><tspan x="-5.56" y="19">1</tspan></text>
    </g>
    <rect id="Rectangle_19" data-name="Rectangle 19" width="326" height="140" transform="translate(159 300)" fill="#f5f5f7"></rect>
    <rect id="Rectangle_19-2" data-name="Rectangle 19" width="326" height="140" transform="translate(159 140)" fill="#f5f5f7"></rect>
    <text id="Stay_6_nights_by_April_29_2024_and_earn_Gold_Status_through_March_2026." data-name="Stay 6 nights by April 29, 2024, and earn Gold Status through March 2026." transform="translate(180 163)" fill="#43464b" font-size="16" font-family="HelveticaNeue-Medium, Helvetica Neue" font-weight="500"><tspan x="0" y="16">Stay 6 nights by April 29, 2024, and </tspan><tspan x="0" y="34">earn </tspan><tspan y="34" font-family="HelveticaNeue-Bold, Helvetica Neue" font-weight="700">Gold Status</tspan><tspan y="34" xml:space="preserve" font-family="HelveticaNeue, Helvetica Neue" font-weight="400"> through March 2026.</tspan></text>
    <rect id="Rectangle_19-3" data-name="Rectangle 19" width="326" height="140" transform="translate(159 460)" fill="#f5f5f7"></rect>
    <rect id="Rectangle_59" data-name="Rectangle 59" width="140" height="140" transform="translate(0 460)" fill="#eff5f9"></rect>
    <rect id="Rectangle_99" data-name="Rectangle 99" width="140" height="140" transform="translate(0 300)" fill="#eff5f9"></rect>
    <text id="Dolby_employees_earn_Instant_Silver_Status" data-name="Dolby employees earn Instant Silver Status" transform="translate(20 320)" fill="#525252" font-size="14" font-family="HelveticaNeue-Medium, Helvetica Neue" font-weight="500"><tspan x="0" y="14">Instant Silver</tspan><tspan x="0" y="30">Status for </tspan><tspan x="0" y="46">Dolby </tspan><tspan x="0" y="62">Employees</tspan></text>
    <image id="hiltonHonors" width="140" height="140" transform="translate(0 140)" xlink:href="https://info.tripkicks.com/hubfs/ClientInsights/Dolby/hiltonHonors.png"></image>
    <image id="hiltonbannerDolby2" width="485" height="109.279" xlink:href="https://info.tripkicks.com/hubfs/ClientInsights/Dolby/hiltonbannerDolby2.png"></image>
    <text id="New_to_Hilton_Honors_Enjoy_Instant_Silver_Status_during_your_trial_period_and_Silver_Member_Perks_like:" data-name="New to Hilton Honors? Enjoy Instant Silver Status during your trial period and Silver Member Perks like:" transform="translate(179 314)" fill="#1a3c6d" font-size="11" font-family="HelveticaNeue-Medium, Helvetica Neue" font-weight="500"><tspan x="0" y="11">New to Hilton Honors? Enjoy Instant Silver Status </tspan><tspan x="0" y="24">during your trial period and Silver Member Perks like:</tspan></text>
    <image id="hiltonSilver" width="326" height="79.218" transform="translate(159 356.782)" xlink:href="https://info.tripkicks.com/hubfs/ClientInsights/Dolby/hiltonSilver.png"></image>
    <image id="hiltonGold" width="326" height="84.434" transform="translate(159 511.783)" xlink:href="https://info.tripkicks.com/hubfs/ClientInsights/Dolby/hiltonGold.png"></image>
    <text id="In_addition_to_Silver_Perks_by_earning_Gold_Status_you_ll_get_benefits_like:" data-name="In addition to Silver Perks, by earning Gold Status, you’ll get benefits like:" transform="translate(179 474)" fill="#1a3c6d" font-size="11" font-family="HelveticaNeue-Medium, Helvetica Neue" font-weight="500"><tspan x="0" y="11">In addition to Silver Perks, by earning Gold Status, </tspan><tspan x="0" y="24">you’ll get benefits like:</tspan></text>
    <text id="Sign_up_today_at:_HiltonHonors.com_dolby" data-name="Sign up today at:
HiltonHonors.com/dolby" transform="translate(180 220)" fill="#43464b" font-size="14" font-family="HelveticaNeue, Helvetica Neue"><tspan x="0" y="13">Sign up today at:</tspan><tspan fill="#1961d9" font-size="16" font-family="HelveticaNeue-Medium, Helvetica Neue" font-weight="500"><a href="https://promo.united.com/offers/dolbywelcome" target="_blank"><tspan x="0" y="31">HiltonHonors.com/dolby</tspan></a></tspan></text>
    <text id="Fast_track_to_Gold_Status_by_staying_6_nights" data-name="Fast track to Gold Status by staying 6 nights" transform="translate(20 480)" fill="#525252" font-size="14" font-family="HelveticaNeue-Medium, Helvetica Neue" font-weight="500"><tspan x="0" y="14">Fast track to </tspan><tspan x="0" y="30">Gold Status by </tspan><tspan x="0" y="46">staying 6 nights</tspan></text>
  </g>
</svg>
